<svg aria-hidden="true" style="position: absolute; width: 0; height: 0; overflow: hidden;" version="1.1" xmlns="http://www.w3.org/2000/svg" xmlns:xlink="http://www.w3.org/1999/xlink">
    <defs>
        <symbol id="icon-info" viewBox="0 0 32 32">
            <path fill="#484848" style="fill: var(--color1, #484848)" d="M17 22v-8h-4v2h2v6h-3v2h8v-2h-3zM16 8c-0.297 0-0.587 0.088-0.833 0.253s-0.439 0.399-0.552 0.673c-0.114 0.274-0.143 0.576-0.085 0.867s0.201 0.558 0.411 0.768c0.21 0.21 0.477 0.353 0.768 0.411s0.593 0.028 0.867-0.085c0.274-0.114 0.508-0.306 0.673-0.552s0.253-0.537 0.253-0.833c0-0.398-0.158-0.779-0.439-1.061s-0.663-0.439-1.061-0.439z"></path>
            <path fill="#484848" style="fill: var(--color1, #484848)" d="M16 30c-2.769 0-5.476-0.821-7.778-2.359s-4.097-3.725-5.156-6.283-1.337-5.373-0.797-8.089c0.54-2.716 1.874-5.21 3.832-7.168s4.452-3.291 7.168-3.832c2.716-0.54 5.531-0.263 8.089 0.797s4.745 2.854 6.283 5.156c1.538 2.302 2.359 5.009 2.359 7.778 0 3.713-1.475 7.274-4.101 9.899s-6.186 4.101-9.899 4.101zM16 4c-2.373 0-4.693 0.704-6.667 2.022s-3.511 3.193-4.42 5.385c-0.908 2.193-1.146 4.606-0.683 6.933s1.606 4.466 3.284 6.144c1.678 1.678 3.816 2.821 6.144 3.284s4.741 0.226 6.933-0.683c2.193-0.908 4.067-2.446 5.385-4.42s2.022-4.293 2.022-6.667c0-3.183-1.264-6.235-3.515-8.485s-5.303-3.515-8.485-3.515z"></path>
        </symbol>
        <symbol id="icon-arrow-right-dark" viewBox="0 0 29 32">
            <path fill="#484848" style="fill: var(--color1, #484848)" d="M2.909 14.182c-1.004 0-1.818 0.814-1.818 1.818s0.814 1.818 1.818 1.818v-3.636zM27.467 17.286c0.71-0.71 0.71-1.861 0-2.571l-11.571-11.571c-0.71-0.71-1.861-0.71-2.571 0s-0.71 1.861 0 2.571l10.285 10.285-10.285 10.285c-0.71 0.71-0.71 1.861 0 2.571s1.861 0.71 2.571 0l11.571-11.571zM2.909 17.818h23.273v-3.636h-23.273v3.636z"></path>
        </symbol>
        <symbol id="icon-arrow-right-white" viewBox="0 0 29 32">
            <path fill="#fff" style="fill: var(--color2, #fff)" d="M2.909 14.182c-1.004 0-1.818 0.814-1.818 1.818s0.814 1.818 1.818 1.818v-3.636zM27.467 17.286c0.71-0.71 0.71-1.861 0-2.571l-11.571-11.571c-0.71-0.71-1.861-0.71-2.571 0s-0.71 1.861 0 2.571l10.285 10.285-10.285 10.285c-0.71 0.71-0.71 1.861 0 2.571s1.861 0.71 2.571 0l11.571-11.571zM2.909 17.818h23.273v-3.636h-23.273v3.636z"></path>
        </symbol>
        <symbol id="icon-play" viewBox="0 0 32 32">
            <path stroke-linejoin="round" stroke-linecap="round" stroke-miterlimit="4" stroke-width="2.6667" d="M6.667 4l18.667 12-18.667 12v-24z"></path>
        </symbol>
        <symbol id="icon-play-outline" viewBox="0 0 21 20">
            <g clip-path="url(#clip0_6376_2530)">
                <path d="M2.94277 17.0698C1.98423 16.1474 1.21967 15.0439 0.693695 13.8239C0.167719 12.6038 -0.109135 11.2916 -0.120715 9.96385C-0.132294 8.63605 0.121633 7.31926 0.62625 6.09029C1.13087 4.86133 1.87607 3.74481 2.81837 2.80589C3.76068 1.86696 4.88121 1.12443 6.1146 0.621618C7.34798 0.11881 8.66951 -0.134207 10.0021 -0.122669C11.3347 -0.111131 12.6516 0.164731 13.876 0.688821C15.1004 1.21291 16.2078 1.97473 17.1336 2.92984C18.9618 4.81586 19.9733 7.34188 19.9505 9.96385C19.9276 12.5858 18.8721 15.0939 17.0114 16.948C15.1506 18.8021 12.6335 19.8538 10.0021 19.8766C7.37069 19.8994 4.83558 18.8914 2.94277 17.0698ZM15.7186 15.6598C17.2251 14.1587 18.0714 12.1227 18.0714 9.99984C18.0714 7.87692 17.2251 5.84096 15.7186 4.33984C14.212 2.83871 12.1687 1.99539 10.0382 1.99539C7.90765 1.99539 5.86437 2.83871 4.35784 4.33984C2.85132 5.84096 2.00496 7.87692 2.00496 9.99984C2.00496 12.1227 2.85132 14.1587 4.35784 15.6598C5.86437 17.161 7.90765 18.0043 10.0382 18.0043C12.1687 18.0043 14.212 17.161 15.7186 15.6598ZM7.02741 5.99984L15.0562 9.99984L7.02741 13.9998V5.99984Z" fill="#484848"/>
            </g>
            <defs>
                <clipPath id="clip0_6376_2530">
                    <rect width="20.0719" height="20" fill="white"/>
                </clipPath>
            </defs>
        </symbol>
        <symbol id="icon-pause" viewBox="0 0 32 32">
            <path stroke-linejoin="round" stroke-linecap="round" stroke-miterlimit="4" stroke-width="2.6667" d="M13.333 5.333h-5.333v21.333h5.333v-21.333z"></path>
            <path stroke-linejoin="round" stroke-linecap="round" stroke-miterlimit="4" stroke-width="2.6667" d="M24 5.333h-5.333v21.333h5.333v-21.333z"></path>
        </symbol>
        <symbol id="icon-dropdown" viewBox="0 0 57 32">
            <path fill="none" stroke="#695e4a" style="stroke: var(--color1, #695e4a)" stroke-linejoin="round" stroke-linecap="round" stroke-miterlimit="4" stroke-width="4.4444" d="M4.34 2.222l25.175 25.108 25.175-25.108"></path>
        </symbol>
        <symbol id="icon-map-pin" viewBox="0 0 21 32">
            <path fill="#faa834" style="fill: var(--color1, #faa834)" d="M19.751 10.81c-0.24 5.179-4.644 9.183-9.837 8.943s-9.207-4.632-8.967-9.811c0.24-5.179 4.644-9.183 9.837-8.943s9.207 4.632 8.967 9.811z"></path>
            <path fill="#faa834" style="fill: var(--color1, #faa834)" d="M1.603 14.244l8.65 16.631 8.444-15.842-17.094-0.789z"></path>
            <path fill="#fff" style="fill: var(--color2, #fff)" d="M14.625 10.574c-0.109 2.354-2.111 4.174-4.471 4.065s-4.185-2.106-4.076-4.46c0.109-2.354 2.111-4.174 4.471-4.065s4.185 2.106 4.076 4.46z"></path>
        </symbol>
        <symbol id="icon-use-location" viewBox="0 0 32 32">
            <path fill="#484848" style="fill: var(--color1, #484848)" d="M13.76 0v4.213c-4.818 0.916-8.63 4.729-9.547 9.547h-4.213v4.48h4.213c0.916 4.818 4.729 8.63 9.547 9.547v4.213h4.48v-4.213c4.818-0.916 8.63-4.729 9.547-9.547h4.213v-4.48h-4.213c-0.916-4.818-4.729-8.63-9.547-9.547v-4.213h-4.48zM16 7.2c1.157-0.003 2.302 0.222 3.371 0.663s2.040 1.089 2.858 1.907c0.818 0.818 1.466 1.789 1.907 2.858s0.667 2.215 0.663 3.371c0.003 1.157-0.222 2.302-0.663 3.371s-1.089 2.040-1.907 2.858c-0.818 0.818-1.789 1.466-2.858 1.907s-2.215 0.667-3.371 0.663c-1.156 0.003-2.302-0.222-3.371-0.663s-2.040-1.089-2.858-1.907c-0.818-0.818-1.466-1.789-1.907-2.858s-0.667-2.215-0.663-3.371c-0.003-1.156 0.222-2.302 0.663-3.371s1.089-2.040 1.907-2.858c0.818-0.818 1.789-1.466 2.858-1.907s2.215-0.667 3.371-0.663z"></path>
        </symbol>
        <symbol id="icon-expand" viewBox="0 0 17 17">
            <path d="M10.625 2.125H14.875M14.875 2.125V6.375M14.875 2.125L9.91667 7.08333M6.375 14.875H2.125M2.125 14.875V10.625M2.125 14.875L7.08333 9.91667" stroke="#695E4A" stroke-linecap="round" stroke-linejoin="round"/>
        </symbol>
        <symbol id="icon-download-white" viewBox="0 0 22 32">
            <path fill="#fff" style="fill: var(--color1, #fff)" d="M12.606 1.455c0-0.727-0.727-1.455-1.455-1.455s-1.455 0.727-1.455 1.455h2.909zM10.182 31.758c0.485 0.485 1.455 0.485 2.182 0l9.697-9.697c0.485-0.485 0.485-1.455 0-2.182-0.727-0.485-1.697-0.485-2.424 0l-8.485 8.485-8.485-8.485c-0.727-0.485-1.697-0.485-2.182 0s-0.485 1.455 0 2.182l9.697 9.697zM9.697 1.455v29.091h2.909v-29.091h-2.909z"></path>
        </symbol>
        <symbol id="icon-facebook" viewBox="0 0 32 32">
            <path fill="#484848" style="fill: var(--color1, #484848)" d="M18.667 18h3.333l1.333-5.333h-4.667v-2.667c0-1.373 0-2.667 2.667-2.667h2v-4.48c-0.435-0.057-2.076-0.187-3.809-0.187-3.62 0-6.191 2.209-6.191 6.267v3.733h-4v5.333h4v11.333h5.333v-11.333z"></path>
        </symbol>
        <symbol id="icon-linkedin" viewBox="0 0 32 32">
            <path fill="#484848" style="fill: var(--color1, #484848)" d="M9.254 6.667c-0 0.707-0.282 1.385-0.782 1.885s-1.179 0.78-1.886 0.78c-0.707-0-1.385-0.282-1.885-0.782s-0.78-1.179-0.78-1.886c0-0.707 0.282-1.385 0.782-1.885s1.179-0.78 1.886-0.78c0.707 0 1.385 0.282 1.885 0.782s0.78 1.179 0.78 1.886zM9.334 11.307h-5.333v16.693h5.333v-16.693zM17.761 11.307h-5.307v16.693h5.253v-8.76c0-4.88 6.36-5.333 6.36 0v8.76h5.267v-10.573c0-8.227-9.413-7.92-11.627-3.88l0.053-2.24z"></path>
        </symbol>
        <symbol id="icon-twitter" viewBox="0 0 32 32">
            <path fill="#484848" style="fill: var(--color1, #484848)" d="M24.435 2.667h4.498l-9.827 11.297 11.561 15.37h-9.052l-7.089-9.323-8.113 9.323h-4.5l10.511-12.084-11.090-14.582h9.282l6.408 8.521 7.411-8.523zM22.857 26.627h2.492l-16.088-21.394h-2.674l16.27 21.394z"></path>
        </symbol>
        <symbol id="icon-download-dark-grey" viewBox="0 0 22 32">
            <path fill="#484848" style="fill: var(--color1, #484848)" d="M12.606 1.455c0-0.727-0.727-1.455-1.455-1.455s-1.455 0.727-1.455 1.455h2.909zM10.182 31.758c0.485 0.485 1.455 0.485 2.182 0l9.697-9.697c0.485-0.485 0.485-1.455 0-2.182-0.727-0.485-1.697-0.485-2.424 0l-8.485 8.485-8.485-8.485c-0.727-0.485-1.697-0.485-2.182 0s-0.485 1.455 0 2.182l9.697 9.697zM9.697 1.455v29.091h2.909v-29.091c0 0-2.909 0-2.909 0z"></path>
        </symbol>
        <symbol id="icon-facebook-neutral" xmlns="http://www.w3.org/2000/svg" viewBox="0 0 17 18">
            <path d="M12.7487 1.5H10.6237C9.68439 1.5 8.78355 1.89509 8.11936 2.59835C7.45517 3.30161 7.08203 4.25544 7.08203 5.25V7.5H4.95703V10.5H7.08203V16.5H9.91536V10.5H12.0404L12.7487 7.5H9.91536V5.25C9.91536 5.05109 9.98999 4.86032 10.1228 4.71967C10.2557 4.57902 10.4358 4.5 10.6237 4.5H12.7487V1.5Z"/>
        </symbol>
        <symbol id="icon-instagram-neutral" xmlns="http://www.w3.org/2000/svg" viewBox="0 0 18 18">
            <g clip-path="url(#clip0_4069_12522)">
                <path d="M13.125 4.875H13.1325M5.25 1.5H12.75C14.8211 1.5 16.5 3.17893 16.5 5.25V12.75C16.5 14.8211 14.8211 16.5 12.75 16.5H5.25C3.17893 16.5 1.5 14.8211 1.5 12.75V5.25C1.5 3.17893 3.17893 1.5 5.25 1.5ZM12 8.5275C12.0926 9.15168 11.9859 9.78916 11.6953 10.3493C11.4047 10.9094 10.9449 11.3636 10.3812 11.6473C9.81758 11.931 9.17884 12.0297 8.55584 11.9294C7.93284 11.8292 7.35732 11.5351 6.91113 11.0889C6.46494 10.6427 6.1708 10.0672 6.07055 9.44416C5.9703 8.82116 6.06905 8.18242 6.35274 7.61878C6.63644 7.05514 7.09064 6.59531 7.65074 6.30468C8.21084 6.01406 8.84832 5.90744 9.4725 6C10.1092 6.09441 10.6986 6.3911 11.1538 6.84623C11.6089 7.30136 11.9056 7.89081 12 8.5275Z" stroke="white" stroke-width="1.5" stroke-linecap="round" stroke-linejoin="round"/>
            </g>
            <defs>
                <clipPath id="clip0_4069_12522">
                    <rect width="18" height="18"/>
                </clipPath>
            </defs>
        </symbol>
        <symbol id="icon-x-neutral" xmlns="http://www.w3.org/2000/svg" viewBox="0 0 18 17">
            <g clip-path="url(#clip0_4069_12524)">
                <path d="M0.898438 16.9998C1.15124 16.7118 1.40376 16.4236 1.65683 16.1359C3.12273 14.4686 4.58877 12.8013 6.05467 11.1341C6.43332 10.7035 6.81183 10.2728 7.19144 9.84304C7.21537 9.81599 7.21936 9.79876 7.19721 9.76727C6.69684 9.05705 6.19799 8.34588 5.69872 7.63499C5.18748 6.907 4.67625 6.17914 4.16501 5.45129C3.62984 4.68938 3.09481 3.92748 2.55964 3.16557C2.01347 2.38765 1.46716 1.60987 0.920994 0.831947C0.915492 0.824141 0.910403 0.815796 0.902426 0.803549C0.915355 0.802068 0.925395 0.799915 0.935436 0.799915C2.52031 0.79978 4.10504 0.79978 5.68978 0.800857C5.70683 0.800857 5.73021 0.812835 5.73984 0.826429C6.41131 1.78053 7.08154 2.7353 7.75205 3.68993C8.43837 4.66731 9.12484 5.64456 9.8113 6.62194C9.84142 6.66487 9.87182 6.70767 9.90496 6.75451C9.96534 6.68614 10.023 6.62086 10.0805 6.55559C11.4391 5.01024 12.7977 3.4649 14.1563 1.91956C14.4762 1.55563 14.7962 1.19157 15.117 0.828582C15.1297 0.814181 15.1533 0.800991 15.1719 0.800991C15.6274 0.799511 16.0831 0.79978 16.5388 0.799915C16.5455 0.799915 16.5524 0.800722 16.5671 0.80153C16.5543 0.816873 16.5455 0.828044 16.536 0.838811C15.4983 2.01915 14.4604 3.19949 13.4225 4.37983C12.4709 5.46219 11.5193 6.54455 10.5671 7.62637C10.5467 7.64952 10.542 7.66433 10.5617 7.69219C11.1637 8.54763 11.7646 9.40388 12.3658 10.2599C13.1773 11.4152 13.9889 12.5703 14.8004 13.7256C15.4486 14.6485 16.0966 15.5717 16.7445 16.4947C16.8568 16.6546 16.9691 16.8145 17.0817 16.9741C17.0862 16.9805 17.0927 16.9856 17.0983 16.9914C17.0969 16.9941 17.0957 16.9992 17.094 16.9994C17.0829 17 17.0716 16.9998 17.0603 16.9998H12.272C12.2618 16.9835 12.2524 16.9667 12.2412 16.9509C12.1346 16.799 12.0276 16.6473 11.9209 16.4953C11.2721 15.5714 10.6235 14.6473 9.9747 13.7234C9.2837 12.7394 8.59256 11.7554 7.90142 10.7714C7.88753 10.7516 7.87322 10.7323 7.85741 10.7101C7.84448 10.7242 7.83595 10.7332 7.8277 10.7425C7.11263 11.5557 6.3977 12.3687 5.68263 13.1819C4.60459 14.4079 3.52655 15.6338 2.44879 16.8599C2.40876 16.9054 2.37121 16.9531 2.33257 16.9996H0.898438V16.9998ZM2.84573 1.85401C2.85714 1.87124 2.8643 1.88281 2.87227 1.89398C4.00588 3.48038 5.13948 5.06677 6.27295 6.65316C7.49031 8.35678 8.70754 10.0605 9.92491 11.7643C10.9239 13.1624 11.9231 14.5604 12.9215 15.959C12.9399 15.9847 12.9585 15.994 12.9901 15.994C13.6905 15.9931 14.3907 15.9933 15.091 15.9933H15.1385C15.1275 15.9757 15.121 15.9641 15.1132 15.9532C14.132 14.5799 13.1506 13.2065 12.1693 11.8332C11.1324 10.3821 10.0955 8.93107 9.05854 7.47994C7.72592 5.61508 6.39343 3.75009 5.06149 1.88483C5.04417 1.86047 5.02615 1.85132 4.99616 1.85145C4.29444 1.85226 3.59271 1.85199 2.89098 1.85213C2.8786 1.85213 2.86622 1.8532 2.84559 1.85401H2.84573Z"/>
            </g>
            <defs>
                <clipPath id="clip0_4069_12524">
                    <rect width="16.2" height="16.2" fill="white" transform="translate(0.898438 0.799805)"/>
                </clipPath>
            </defs>
        </symbol>
        <symbol id="icon-youtube-neutral" xmlns="http://www.w3.org/2000/svg" viewBox="0 0 20 14">
            <path d="M19.5818 2.18581C19.3523 1.32548 18.6739 0.648064 17.8136 0.417742C16.2545 0 10 0 10 0C10 0 3.74545 0 2.18636 0.417742C1.32614 0.648064 0.647727 1.32548 0.418182 2.18581C0 3.74613 0 7 0 7C0 7 0 10.2539 0.418182 11.8142C0.647727 12.6745 1.32614 13.3519 2.18636 13.5823C3.74659 14 10 14 10 14C10 14 16.2545 14 17.8136 13.5823C18.6739 13.3519 19.3523 12.6745 19.5818 11.8142C20 10.255 20 7 20 7C20 7 20 3.74613 19.5818 2.18581ZM7.95455 9.95468V4.04532L13.1818 7L7.95455 9.95468Z"/>
        </symbol>
        <symbol id="icon-linkedin-neutral" xmlns="http://www.w3.org/2000/svg" viewBox="0 0 18 18">
            <path d="M3.89795 2.33404C3.89775 2.75394 3.73172 3.15656 3.43639 3.45333C3.14107 3.7501 2.74063 3.9167 2.32319 3.91649C1.90575 3.91628 1.50548 3.74927 1.21045 3.45221C0.91542 3.15514 0.749791 2.75236 0.75 2.33245C0.750209 1.91255 0.916238 1.50993 1.21156 1.21316C1.50689 0.916395 1.90732 0.74979 2.32476 0.75C2.74221 0.75021 3.14247 0.917217 3.4375 1.21428C3.73253 1.51135 3.89816 1.91413 3.89795 2.33404ZM3.94517 5.08888H0.797219V15H3.94517V5.08888ZM8.91894 5.08888H5.78673V15H8.88746V9.79904C8.88746 6.9017 12.6414 6.63255 12.6414 9.79904V15H15.75V8.72243C15.75 3.83812 10.1939 4.02019 8.88746 6.41881L8.91894 5.08888Z"/>
        </symbol>
        <symbol id="icon-spotify-outline" xmlns="http://www.w3.org/2000/svg" viewBox="0 0 20 20">
            <path d="M5.52042 12.7001C5.52042 12.7001 9.58499 11.8001 13.6496 13.6001M5.06881 10.0001C5.06881 10.0001 10.4882 8.65013 15.0044 11.3501M4.61719 7.30013C7.3269 6.85013 11.8431 6.40013 16.3593 9.10013" stroke="#484848" stroke-width="1.5" stroke-linecap="round" stroke-linejoin="round" fill="none"/>
            <path d="M10.0363 19C5.0477 19 1.00391 14.9707 1.00391 10C1.00391 5.0293 5.0477 1 10.0363 1C15.0249 1 19.0687 5.0293 19.0687 10C19.0687 14.9707 15.0249 19 10.0363 19Z" stroke="#484848" stroke-width="1.5" stroke-linecap="round" stroke-linejoin="round" fill="none"/>
        </symbol>
        <symbol id="icon-search" viewBox="0 0 32 32">
            <path fill="#484848" style="fill: var(--color1, #484848); stroke: var(--color1, #484848)" stroke="#484848" stroke-linejoin="miter" stroke-linecap="butt" stroke-miterlimit="4" stroke-width="0.7111" d="M30.222 28.572l-7.945-7.898c1.909-2.278 2.861-5.201 2.658-8.159s-1.546-5.725-3.749-7.724-5.097-3.078-8.079-3.010c-2.982 0.067-5.824 1.275-7.934 3.372s-3.325 4.921-3.392 7.886c-0.068 2.965 1.017 5.841 3.028 8.031s4.795 3.525 7.771 3.727 5.916-0.744 8.209-2.642l7.946 7.898 1.488-1.479zM3.92 13.319c0-1.861 0.555-3.681 1.596-5.229s2.519-2.754 4.25-3.466c1.73-0.712 3.634-0.899 5.471-0.536s3.524 1.26 4.848 2.576c1.324 1.316 2.226 2.993 2.591 4.819s0.178 3.718-0.539 5.438c-0.717 1.72-1.93 3.19-3.487 4.224s-3.388 1.586-5.261 1.586c-2.51-0.003-4.917-0.995-6.692-2.76s-2.774-4.157-2.776-6.652z"></path>
        </symbol>
        <symbol id="icon-back-arrow" viewBox="0 0 58 32">
            <path fill="#695e4a" style="fill: var(--color1, #695e4a)" d="M52.8 16.863c1.105 0 2-0.895 2-2s-0.895-2-2-2v4zM1.786 13.448c-0.781 0.781-0.781 2.047 0 2.828l12.728 12.728c0.781 0.781 2.047 0.781 2.828 0s0.781-2.047 0-2.828l-11.314-11.314 11.314-11.314c0.781-0.781 0.781-2.047 0-2.828s-2.047-0.781-2.828 0l-12.728 12.728zM52.8 12.863h-49.6v4h49.6v-4z"></path>
        </symbol>
        <symbol id="icon-filter" viewBox="0 0 46 32">
            <path fill="#484848" style="fill: var(--color1, #484848)" d="M22.857 28.571c-0.3 0.004-0.597-0.055-0.873-0.174s-0.523-0.293-0.727-0.512l-20.571-20.571c-0.914-0.914-0.914-2.331 0-3.246s2.331-0.914 3.246 0l18.971 18.971 18.926-18.926c0.914-0.914 2.331-0.914 3.246 0s0.914 2.331 0 3.246l-20.571 20.571c-0.457 0.457-1.051 0.686-1.6 0.686l-0.046-0.046z"></path>
        </symbol>
        <symbol id="icon-close" viewBox="0 0 32 32">
            <path fill="#484848" style="fill: var(--color1, #484848)" d="M1.503 30.026c-0.252-0.239-0.418-0.524-0.497-0.855s-0.080-0.663 0-0.994c0.093-0.331 0.259-0.616 0.497-0.855l11.773-11.793-11.773-11.773c-0.239-0.239-0.398-0.524-0.477-0.855s-0.080-0.656 0-0.974c0.080-0.331 0.239-0.623 0.477-0.875s0.524-0.418 0.855-0.497c0.331-0.080 0.656-0.073 0.974 0.020 0.331 0.080 0.623 0.239 0.875 0.477l11.773 11.793 11.813-11.793c0.358-0.358 0.802-0.537 1.332-0.537s0.981 0.179 1.352 0.537 0.557 0.809 0.557 1.352c0 0.544-0.179 0.994-0.537 1.352l-11.813 11.773 11.813 11.793c0.358 0.358 0.537 0.809 0.537 1.352 0 0.53-0.186 0.981-0.557 1.352s-0.822 0.55-1.352 0.537c-0.53 0-0.974-0.179-1.332-0.537l-11.813-11.793-11.773 11.793c-0.252 0.239-0.544 0.398-0.875 0.477-0.318 0.093-0.643 0.093-0.974 0-0.331-0.080-0.616-0.239-0.855-0.477z"></path>
        </symbol>
        <symbol id="icon-go-back" viewBox="0 0 58 32">
            <path fill="#695e4a" style="fill: var(--color1, #695e4a)" d="M52.8 18.054c1.105 0 2-0.895 2-2s-0.895-2-2-2v4zM1.786 14.64c-0.781 0.781-0.781 2.047 0 2.828l12.728 12.728c0.781 0.781 2.047 0.781 2.828 0s0.781-2.047 0-2.828l-11.314-11.314 11.314-11.314c0.781-0.781 0.781-2.047 0-2.828s-2.047-0.781-2.828 0l-12.728 12.728zM52.8 14.054l-49.6-0v4l49.6 0v-4z"></path>
        </symbol>
    </defs>
</svg>